<svg version="1.0" xmlns="http://www.w3.org/2000/svg" width="512.000000pt" height="512.000000pt"
    viewBox="0 0 512.000000 512.000000" preserveAspectRatio="xMidYMid meet">

    <g transform="translate(0.000000,512.000000) scale(0.100000,-0.100000)" fill="#000000"
        stroke="none">
        <path d="M2380 4954 c-241 -27 -382 -56 -555 -111 -142 -46 -312 -119 -428
-184 -662 -372 -1094 -998 -1213 -1761 -25 -158 -25 -518 0 -676 74 -473 259
-879 561 -1230 382 -445 916 -731 1515 -814 123 -17 478 -16 600 1 604 83
1135 368 1517 815 300 351 486 757 559 1228 25 157 25 518 1 675 -83 527 -317
993 -682 1358 -367 367 -825 597 -1352 680 -93 15 -448 28 -523 19z m510 -178
c510 -84 933 -303 1280 -662 271 -281 457 -612 554 -986 57 -217 70 -326 70
-563 1 -239 -14 -361 -69 -571 -204 -782 -817 -1395 -1600 -1599 -209 -55
-331 -70 -570 -69 -237 0 -346 13 -563 70 -374 97 -699 279 -983 552 -369 353
-582 773 -670 1317 -18 106 -18 484 0 590 83 517 274 909 611 1259 355 367
811 598 1315 665 44 6 96 13 115 15 75 9 419 -4 510 -18z" />
        <path d="M3370 3911 c-572 -199 -1350 -485 -1397 -512 -74 -44 -208 -178 -252
-252 -20 -34 -139 -351 -289 -770 -218 -609 -255 -722 -260 -783 -8 -125 37
-234 134 -323 77 -71 145 -95 264 -95 l95 0 712 255 c416 150 736 270 770 290
74 44 208 178 252 252 20 34 140 354 290 770 l255 712 0 95 c0 131 -24 192
-113 281 -81 81 -147 110 -266 116 -73 4 -90 1 -195 -36z m306 -157 c30 -18
60 -48 79 -78 26 -43 30 -59 30 -120 0 -67 -13 -107 -248 -761 -142 -395 -261
-712 -280 -743 -41 -69 -120 -148 -189 -189 -80 -48 -1418 -525 -1488 -531
-96 -7 -182 44 -226 134 -45 92 -45 93 225 849 134 374 258 708 277 741 41 75
127 163 199 204 39 22 1103 411 1425 521 14 4 53 7 86 6 48 -2 73 -9 110 -33z" />
        <path d="M2466 2950 c-63 -16 -153 -70 -197 -117 -22 -24 -55 -74 -72 -111
-29 -61 -32 -76 -32 -163 0 -90 2 -99 37 -171 45 -91 103 -147 196 -191 61
-29 76 -32 162 -32 86 0 101 3 162 32 93 44 151 100 196 191 35 72 37 81 37
172 0 91 -2 100 -37 172 -68 136 -188 217 -336 224 -42 2 -94 -1 -116 -6z
m168 -162 c55 -16 138 -99 154 -154 28 -94 8 -169 -63 -239 -101 -102 -229
-102 -330 0 -102 101 -102 229 0 330 70 71 145 90 239 63z" />
    </g>
</svg>
