<svg version="1.0" xmlns="http://www.w3.org/2000/svg" width="512" height="512"
    viewBox="0 0 512.000000 512.000000" preserveAspectRatio="xMidYMid meet">

    <g transform="translate(0.000000,512.000000) scale(0.100000,-0.100000)" fill="#000000"
        stroke="none">
        <path d="M2265 4584 c-642 -21 -1082 -123 -1196 -276 -99 -132 -301 -531 -540
-1068 l-78 -175 -62 -42 c-284 -192 -404 -502 -385 -1003 9 -270 80 -734 121
-797 9 -14 31 -31 50 -38 l33 -14 4 -193 c4 -181 5 -196 29 -248 37 -79 81
-125 157 -162 l67 -33 344 -3 c445 -5 494 4 588 98 71 70 87 117 91 252 l4
116 41 -19 c40 -18 82 -19 1027 -19 945 0 987 1 1027 19 l41 19 4 -116 c4
-135 20 -182 91 -252 94 -94 143 -103 588 -98 l344 3 67 33 c76 37 120 83 157
162 24 52 25 67 29 248 l4 193 33 14 c19 7 41 24 50 38 41 63 112 527 121 797
19 499 -98 805 -381 1000 -69 48 -71 50 -114 152 -200 463 -473 1009 -569
1136 -97 128 -436 225 -917 261 -140 11 -706 20 -870 15z m990 -238 c289 -33
493 -82 596 -143 62 -37 221 -337 480 -906 44 -96 54 -127 41 -123 -9 3 -64
15 -122 26 -393 74 -850 102 -1690 102 -840 0 -1297 -28 -1690 -102 -58 -11
-113 -23 -122 -26 -13 -4 -3 27 41 123 205 452 395 823 448 878 55 57 234 114
463 149 82 13 207 25 390 40 25 2 266 2 535 1 373 -2 523 -7 630 -19z m16
-1266 c688 -28 1113 -96 1297 -207 135 -82 219 -179 273 -317 46 -115 59 -106
-169 -106 -344 0 -341 2 -739 -395 l-303 -300 0 -44 c0 -36 6 -49 34 -77 l34
-34 582 0 581 0 -6 -42 c-4 -24 -12 -70 -19 -103 l-12 -60 -454 -5 -455 -5
-212 -108 -213 -107 -930 0 -930 0 -213 108 -212 107 -455 5 -454 5 -12 60
c-7 33 -15 79 -19 103 l-6 42 581 0 582 0 34 34 c28 28 34 41 34 77 l0 44
-302 300 c-399 397 -396 395 -740 395 -228 0 -215 -9 -169 106 74 189 220 319
432 385 224 70 613 118 1104 138 289 12 1171 12 1456 1z m-2567 -873 c47 -22
95 -63 237 -204 99 -97 179 -180 179 -185 0 -10 -890 -11 -890 0 -1 4 -5 81
-10 171 -5 91 -6 185 -3 209 l6 43 211 -3 c206 -3 212 -4 270 -31z m4199 -10
c3 -24 2 -117 -3 -208 -5 -90 -9 -167 -10 -171 0 -11 -890 -10 -890 0 0 16
355 359 390 377 74 38 112 44 311 44 l196 1 6 -43z m-3688 -1059 l66 -33 -3
-148 -3 -149 -33 -29 -32 -29 -359 0 -359 0 -31 31 -31 31 0 179 0 179 360 0
360 0 65 -32z m3475 -147 l0 -179 -31 -31 -31 -31 -359 0 -359 0 -32 29 -33
29 -3 149 -3 148 63 32 63 32 363 0 362 1 0 -179z" />
        <path d="M1314 2416 c-35 -35 -42 -65 -25 -108 13 -34 536 -659 573 -685 l31
-23 667 0 667 0 31 23 c37 26 560 651 573 685 17 43 10 73 -25 108 l-34 34
-1212 0 -1212 0 -34 -34z m2174 -194 c-7 -10 -87 -107 -177 -215 l-164 -197
-587 0 -587 0 -164 197 c-90 108 -170 205 -177 215 -13 17 19 18 928 18 909 0
941 -1 928 -18z" />
    </g>
</svg>
